# xmcd
#
# Track frame offsets: 
#        150
#        16701
#        40646
#        61377
#        75994
#        97721
#        124149
#        149198
#        172604
#        194452
#        224571
#
# Disc length: 3334 seconds
#
# Revision: 3
# Processed by: cddbd v1.5.2PL0 Copyright (c) Steve Scherf et al.
# Submitted via: ExactAudioCopyFreeDBPlugin 1.0
#
DISCID=8a0d040b
DTITLE=Dorota Miśkiewicz - Goes To Heaven (Zatrzymaj Się)
DYEAR=2002
DGENRE=Jazz
TTITLE0=Zatrzymaj Się - BZIMIX
TTITLE1=Blisko Niebo
TTITLE2=Jesteś Ty I Jestem Ja
TTITLE3=Międzyczas
TTITLE4=Wciąż To Samo I To Samo
TTITLE5=Kolęda Wędrujących
TTITLE6=Jaa
TTITLE7=Asfalt, Ulica, Neony
TTITLE8=Wciąż Idę
TTITLE9=Sophisticated Lady
TTITLE10=Zatrzymaj się
EXTD=YEAR: 2002
EXTT0=
EXTT1=
EXTT2=
EXTT3=
EXTT4=
EXTT5=
EXTT6=
EXTT7=
EXTT8=
EXTT9=
EXTT10=
PLAYORDER=
